<svg xmlns="http://www.w3.org/2000/svg" width="116" height="19" viewBox="0 0 116 19" fill="none"><path d="M8.52 15.14C8.24 15.14 7.92 14.9733 7.56 14.64C7.21333 14.2933 6.85333 13.8333 6.48 13.26C6.10667 12.6867 5.72667 12.0467 5.34 11.34C4.96667 10.6333 4.60667 9.91333 4.26 9.18C4.19333 9.03333 4.12 8.88 4.04 8.72C3.97333 8.54667 3.94 8.37333 3.94 8.2C3.94 8.01333 4 7.75333 4.12 7.42C4.25333 7.07333 4.50667 6.64 4.88 6.12C5.25333 5.6 5.8 4.97333 6.52 4.24L8 2.7C8.46667 2.22 8.94 1.83333 9.42 1.54C9.91333 1.24667 10.4 1.1 10.88 1.1C11.2933 1.1 11.6067 1.19333 11.82 1.38C12.0333 1.56667 12.14 1.86 12.14 2.26C12.14 2.56667 12.1 2.87333 12.02 3.18C11.9533 3.48667 11.8467 3.74 11.7 3.94C11.5533 4.14 11.38 4.24 11.18 4.24C11.02 4.24 10.8467 4.22 10.66 4.18C10.4733 4.12667 10.2733 4.1 10.06 4.1C9.92667 4.1 9.76667 4.14 9.58 4.22C9.39333 4.3 9.17333 4.44667 8.92 4.66C8.68 4.86 8.38 5.15333 8.02 5.54L5.52 8.12L5.96 6.34C6.42667 7.46 6.93333 8.46667 7.48 9.36C8.04 10.2533 8.56667 10.9933 9.06 11.58C9.55333 12.1667 9.91333 12.56 10.14 12.76C10.4467 13.0133 10.6867 13.1933 10.86 13.3C11.0467 13.3933 11.18 13.46 11.26 13.5C11.34 13.54 11.38 13.6133 11.38 13.72C11.38 13.84 11.28 13.98 11.08 14.14C10.8933 14.3 10.6533 14.46 10.36 14.62C10.0667 14.7667 9.75333 14.8933 9.42 15C9.1 15.0933 8.8 15.14 8.52 15.14ZM1.1 15.16C0.833333 15.16 0.62 15.0667 0.46 14.88C0.3 14.68 0.186667 14.4333 0.12 14.14C0.0533334 13.8467 0.0200001 13.5533 0.0200001 13.26C0.0200001 12.78 0.0466667 12.32 0.1 11.88C0.166667 11.4267 0.226667 10.9067 0.28 10.32L1.24 1.08H2.96C3.38667 1.08 3.68 1.19333 3.84 1.42C4.01333 1.64667 4.1 1.94 4.1 2.3C4.1 2.62 4.08667 2.92 4.06 3.2C4.03333 3.46667 3.99333 3.79333 3.94 4.18C3.9 4.55333 3.84667 5.05333 3.78 5.68L2.78 15.16H1.1ZM16.1906 14.42L15.5306 11.5C16.024 10.22 16.524 9.11333 17.0306 8.18C17.5373 7.23333 18.0573 6.5 18.5906 5.98C19.124 5.46 19.664 5.2 20.2106 5.2C20.544 5.2 20.8106 5.29333 21.0106 5.48C21.2106 5.66667 21.3106 5.96667 21.3106 6.38C21.3106 6.67333 21.2706 6.96667 21.1906 7.26C21.124 7.54 21.024 7.77333 20.8906 7.96C20.7573 8.14667 20.5973 8.24 20.4106 8.24C20.2373 8.24 20.0373 8.18667 19.8106 8.08C19.5973 7.96 19.3373 7.9 19.0306 7.9C18.8306 7.9 18.5906 8.07333 18.3106 8.42C18.0306 8.76667 17.744 9.24 17.4506 9.84C17.1706 10.44 16.9173 11.1333 16.6906 11.92C16.464 12.7067 16.2973 13.54 16.1906 14.42ZM13.9706 15.28C13.7973 15.28 13.6573 15.2467 13.5506 15.18C13.4573 15.1267 13.404 14.9733 13.3906 14.72C13.3773 14.4667 13.404 14.06 13.4706 13.5L14.4106 5.18H16.1906C16.4973 5.18 16.724 5.32667 16.8706 5.62C17.0306 5.91333 17.1106 6.24667 17.1106 6.62C17.1106 6.79333 17.044 7.06667 16.9106 7.44C16.7906 7.8 16.6506 8.18667 16.4906 8.6C16.344 9 16.2173 9.35333 16.1106 9.66L15.6306 11.3L16.5306 11.18L16.1906 14.42C16.1773 14.58 16.0706 14.72 15.8706 14.84C15.6706 14.9467 15.4373 15.0333 15.1706 15.1C14.904 15.1667 14.6573 15.2133 14.4306 15.24C14.204 15.2667 14.0506 15.28 13.9706 15.28ZM23.2352 15.32C22.9952 15.32 22.8085 15.1533 22.6752 14.82C22.5418 14.4867 22.4752 14.1267 22.4752 13.74C22.4752 13.3667 22.4885 13.0333 22.5152 12.74C22.5418 12.4333 22.5818 12.0533 22.6352 11.6L23.3552 5.18H25.1752C25.4952 5.18 25.7085 5.32667 25.8152 5.62C25.9352 5.91333 25.9952 6.24667 25.9952 6.62C25.9952 6.80667 25.9818 7.00667 25.9552 7.22C25.9285 7.42 25.8885 7.73333 25.8352 8.16L25.4552 11.42C25.3885 12.0867 25.3218 12.6533 25.2552 13.12C25.1885 13.5867 25.1285 13.9933 25.0752 14.34C25.0352 14.6867 24.9952 15.0133 24.9552 15.32H23.2352ZM24.9952 4.36C24.5685 4.36 24.1952 4.21333 23.8752 3.92C23.5552 3.61333 23.3952 3.22 23.3952 2.74C23.3952 2.18 23.5752 1.74 23.9352 1.42C24.3085 1.1 24.7418 0.94 25.2352 0.94C25.6752 0.94 26.0485 1.07333 26.3552 1.34C26.6618 1.60667 26.8152 2 26.8152 2.52C26.8152 3.05333 26.6352 3.49333 26.2752 3.84C25.9152 4.18667 25.4885 4.36 24.9952 4.36ZM31.13 15.32C30.05 15.32 29.2033 15.16 28.59 14.84C27.9767 14.52 27.67 14.0533 27.67 13.44C27.67 13.0667 27.7233 12.7667 27.83 12.54C27.9367 12.3 28.0633 12.18 28.21 12.18C28.3167 12.18 28.4167 12.2067 28.51 12.26C28.6167 12.3133 28.77 12.4133 28.97 12.56C29.21 12.7333 29.49 12.9067 29.81 13.08C30.1433 13.2533 30.4767 13.4 30.81 13.52C31.1567 13.6267 31.4633 13.68 31.73 13.68C32.0633 13.68 32.33 13.6067 32.53 13.46C32.73 13.3 32.83 13.0733 32.83 12.78C32.83 12.5667 32.7633 12.3867 32.63 12.24C32.51 12.08 32.29 11.9 31.97 11.7L30.55 10.84C29.99 10.4933 29.5433 10.1133 29.21 9.7C28.8767 9.28667 28.71 8.78 28.71 8.18C28.71 7.28667 29.0433 6.56667 29.71 6.02C30.3767 5.47333 31.3767 5.2 32.71 5.2C33.5633 5.2 34.21 5.28667 34.65 5.46C35.1033 5.62 35.33 5.91333 35.33 6.34C35.33 6.72667 35.2633 7.06667 35.13 7.36C35.01 7.65333 34.8433 7.8 34.63 7.8C34.5633 7.8 34.4833 7.78 34.39 7.74C34.2967 7.7 34.21 7.66 34.13 7.62C33.9967 7.55333 33.81 7.45333 33.57 7.32C33.33 7.18667 33.0767 7.06667 32.81 6.96C32.5433 6.84 32.2833 6.78 32.03 6.78C31.75 6.78 31.5367 6.86 31.39 7.02C31.2433 7.16667 31.17 7.34667 31.17 7.56C31.17 7.77333 31.23 7.96 31.35 8.12C31.4833 8.28 31.7367 8.44 32.11 8.6L33.45 9.16C34.1167 9.44 34.6167 9.78667 34.95 10.2C35.2967 10.6133 35.47 11.14 35.47 11.78C35.47 12.5533 35.27 13.2067 34.87 13.74C34.47 14.26 33.9367 14.6533 33.27 14.92C32.6167 15.1867 31.9033 15.32 31.13 15.32ZM39.6094 15.32C38.9694 15.32 38.4827 15.1333 38.1494 14.76C37.816 14.3867 37.696 13.8 37.7894 13L38.5694 7.16H38.0094C37.7427 7.16 37.6094 7.04 37.6094 6.8C37.6094 6.64 37.7027 6.42 37.8894 6.14C38.076 5.86 38.3227 5.55333 38.6294 5.22C38.936 4.88667 39.2494 4.57333 39.5694 4.28C39.9027 3.98667 40.2094 3.74667 40.4894 3.56C40.7827 3.36 41.016 3.26 41.1894 3.26C41.376 3.26 41.5094 3.32667 41.5894 3.46C41.6827 3.58 41.716 3.76667 41.6894 4.02L41.5094 5.5H43.5494C43.7494 5.5 43.8627 5.53333 43.8894 5.6C43.9294 5.66667 43.9227 5.77333 43.8694 5.92C43.7094 6.44 43.556 6.78 43.4094 6.94C43.276 7.08667 43.0227 7.16 42.6494 7.16H41.2494L40.7494 11.18C40.7227 11.4333 40.696 11.6733 40.6694 11.9C40.656 12.1267 40.6494 12.3333 40.6494 12.52C40.6494 12.7333 40.7027 12.9067 40.8094 13.04C40.916 13.16 41.1094 13.22 41.3894 13.22C41.696 13.22 41.9627 13.1533 42.1894 13.02C42.4294 12.8867 42.6027 12.82 42.7094 12.82C42.8694 12.82 42.9494 12.9133 42.9494 13.1C42.9494 13.26 42.876 13.4667 42.7294 13.72C42.596 13.96 42.3827 14.2067 42.0894 14.46C41.8094 14.7 41.4627 14.9 41.0494 15.06C40.636 15.2333 40.156 15.32 39.6094 15.32ZM46.0648 15.32C45.8248 15.32 45.6382 15.1533 45.5048 14.82C45.3715 14.4867 45.3048 14.1267 45.3048 13.74C45.3048 13.3667 45.3182 13.0333 45.3448 12.74C45.3715 12.4333 45.4115 12.0533 45.4648 11.6L46.1848 5.18H48.0048C48.3248 5.18 48.5382 5.32667 48.6448 5.62C48.7648 5.91333 48.8248 6.24667 48.8248 6.62C48.8248 6.80667 48.8115 7.00667 48.7848 7.22C48.7582 7.42 48.7182 7.73333 48.6648 8.16L48.2848 11.42C48.2182 12.0867 48.1515 12.6533 48.0848 13.12C48.0182 13.5867 47.9582 13.9933 47.9048 14.34C47.8648 14.6867 47.8248 15.0133 47.7848 15.32H46.0648ZM47.8248 4.36C47.3982 4.36 47.0248 4.21333 46.7048 3.92C46.3848 3.61333 46.2248 3.22 46.2248 2.74C46.2248 2.18 46.4048 1.74 46.7648 1.42C47.1382 1.1 47.5715 0.94 48.0648 0.94C48.5048 0.94 48.8782 1.07333 49.1848 1.34C49.4915 1.60667 49.6448 2 49.6448 2.52C49.6448 3.05333 49.4648 3.49333 49.1048 3.84C48.7448 4.18667 48.3182 4.36 47.8248 4.36ZM57.9797 15.2C57.7797 15.2 57.633 15.1133 57.5397 14.94C57.4464 14.7667 57.3797 14.5733 57.3397 14.36C57.313 14.1467 57.2997 13.9867 57.2997 13.88C57.2997 13.6933 57.313 13.4733 57.3397 13.22C57.3664 12.9533 57.393 12.68 57.4197 12.4C57.4597 12.1067 57.4997 11.84 57.5397 11.6L57.8797 9.52C57.9197 9.25333 57.9664 8.98667 58.0197 8.72C58.073 8.45333 58.0997 8.21333 58.0997 8C58.0997 7.84 58.0664 7.72 57.9997 7.64C57.933 7.56 57.8464 7.52 57.7397 7.52C57.5664 7.52 57.293 7.68667 56.9197 8.02C56.5597 8.34 56.173 8.80667 55.7597 9.42C55.3597 10.02 54.993 10.74 54.6597 11.58C54.3264 12.42 54.1064 13.36 53.9997 14.4L53.2997 11.36C53.6997 10.2 54.153 9.22667 54.6597 8.44C55.1664 7.65333 55.6864 7.02667 56.2197 6.56C56.753 6.08 57.2664 5.73333 57.7597 5.52C58.253 5.30667 58.693 5.2 59.0797 5.2C59.533 5.2 59.893 5.28667 60.1597 5.46C60.4397 5.62 60.6397 5.84 60.7597 6.12C60.8797 6.38667 60.9397 6.67333 60.9397 6.98C60.9397 7.32667 60.913 7.65333 60.8597 7.96C60.8197 8.26667 60.773 8.59333 60.7197 8.94L59.7597 15.2H57.9797ZM51.7597 15.28C51.5864 15.28 51.4464 15.2467 51.3397 15.18C51.2464 15.1267 51.193 14.9733 51.1797 14.72C51.1664 14.4667 51.193 14.06 51.2597 13.5L52.1997 5.18H53.9797C54.2864 5.18 54.513 5.32667 54.6597 5.62C54.8197 5.91333 54.8997 6.24667 54.8997 6.62C54.8997 6.79333 54.833 7.06667 54.6997 7.44C54.5664 7.8 54.4197 8.18667 54.2597 8.6C54.0997 9 53.9664 9.35333 53.8597 9.66L53.3397 11.3L54.3197 11.18L53.9997 14.4C53.9864 14.56 53.8797 14.7 53.6797 14.82C53.4797 14.94 53.2397 15.0333 52.9597 15.1C52.693 15.1667 52.4464 15.2133 52.2197 15.24C51.993 15.2667 51.8397 15.28 51.7597 15.28ZM67.3052 18.4C66.5852 18.4 66.0318 18.2133 65.6452 17.84C65.2585 17.4667 65.0652 16.9467 65.0652 16.28C65.0652 16.08 65.1052 15.9467 65.1852 15.88C65.2518 15.8267 65.3118 15.8 65.3652 15.8C65.4318 15.8 65.5052 15.8133 65.5852 15.84C65.6518 15.88 65.7718 15.9333 65.9452 16C66.2652 16.1333 66.5852 16.26 66.9052 16.38C67.2118 16.5 67.4785 16.56 67.7052 16.56C67.9052 16.56 68.0585 16.4733 68.1652 16.3C68.2852 16.14 68.3785 15.8333 68.4452 15.38C68.5252 14.9267 68.6118 14.28 68.7052 13.44L70.0652 1.08H71.8252C72.2785 1.08 72.5785 1.21333 72.7252 1.48C72.8718 1.74667 72.9452 2.06 72.9452 2.42C72.9452 2.66 72.9118 3.02667 72.8452 3.52C72.7785 4.01333 72.6918 4.73333 72.5852 5.68L71.8652 12.32C71.7452 13.4533 71.5185 14.4067 71.1852 15.18C70.8652 15.9667 70.4852 16.5933 70.0452 17.06C69.6052 17.54 69.1452 17.88 68.6652 18.08C68.1852 18.2933 67.7318 18.4 67.3052 18.4ZM78.6055 15.3C77.3655 15.3 76.4055 14.9733 75.7255 14.32C75.0588 13.6667 74.7255 12.7067 74.7255 11.44C74.7255 10.5467 74.8655 9.72 75.1455 8.96C75.4255 8.2 75.8188 7.54 76.3255 6.98C76.8321 6.40667 77.4121 5.96667 78.0655 5.66C78.7321 5.34 79.4388 5.18 80.1855 5.18C81.4121 5.18 82.3588 5.51333 83.0255 6.18C83.6921 6.83333 84.0255 7.8 84.0255 9.08C84.0255 9.96 83.8855 10.78 83.6055 11.54C83.3255 12.2867 82.9388 12.9467 82.4455 13.52C81.9521 14.08 81.3788 14.52 80.7255 14.84C80.0721 15.1467 79.3655 15.3 78.6055 15.3ZM78.9855 13.8C79.3988 13.8 79.7655 13.6133 80.0855 13.24C80.4188 12.8533 80.6788 12.32 80.8655 11.64C81.0655 10.96 81.1655 10.18 81.1655 9.3C81.1655 8.46 81.0388 7.81333 80.7855 7.36C80.5321 6.90667 80.1855 6.68 79.7455 6.68C79.3455 6.68 78.9788 6.87333 78.6455 7.26C78.3121 7.63333 78.0521 8.16 77.8655 8.84C77.6788 9.50667 77.5855 10.2867 77.5855 11.18C77.5855 12.0333 77.7121 12.6867 77.9655 13.14C78.2188 13.58 78.5588 13.8 78.9855 13.8ZM92.7422 15.2C92.5422 15.2 92.3955 15.1133 92.3022 14.94C92.2089 14.7667 92.1422 14.5733 92.1022 14.36C92.0755 14.1467 92.0622 13.9867 92.0622 13.88C92.0622 13.6933 92.0755 13.4733 92.1022 13.22C92.1289 12.9533 92.1555 12.68 92.1822 12.4C92.2222 12.1067 92.2622 11.84 92.3022 11.6L92.6422 9.52C92.6822 9.25333 92.7289 8.98667 92.7822 8.72C92.8355 8.45333 92.8622 8.21333 92.8622 8C92.8622 7.84 92.8289 7.72 92.7622 7.64C92.6955 7.56 92.6089 7.52 92.5022 7.52C92.3289 7.52 92.0555 7.68667 91.6822 8.02C91.3222 8.34 90.9355 8.80667 90.5222 9.42C90.1222 10.02 89.7555 10.74 89.4222 11.58C89.0889 12.42 88.8689 13.36 88.7622 14.4L88.0622 11.36C88.4622 10.2 88.9155 9.22667 89.4222 8.44C89.9289 7.65333 90.4489 7.02667 90.9822 6.56C91.5155 6.08 92.0289 5.73333 92.5222 5.52C93.0155 5.30667 93.4555 5.2 93.8422 5.2C94.2955 5.2 94.6555 5.28667 94.9222 5.46C95.2022 5.62 95.4022 5.84 95.5222 6.12C95.6422 6.38667 95.7022 6.67333 95.7022 6.98C95.7022 7.32667 95.6755 7.65333 95.6222 7.96C95.5822 8.26667 95.5355 8.59333 95.4822 8.94L94.5222 15.2H92.7422ZM86.5222 15.28C86.3489 15.28 86.2089 15.2467 86.1022 15.18C86.0089 15.1267 85.9555 14.9733 85.9422 14.72C85.9289 14.4667 85.9555 14.06 86.0222 13.5L86.9622 5.18H88.7422C89.0489 5.18 89.2755 5.32667 89.4222 5.62C89.5822 5.91333 89.6622 6.24667 89.6622 6.62C89.6622 6.79333 89.5955 7.06667 89.4622 7.44C89.3289 7.8 89.1822 8.18667 89.0222 8.6C88.8622 9 88.7289 9.35333 88.6222 9.66L88.1022 11.3L89.0822 11.18L88.7622 14.4C88.7489 14.56 88.6422 14.7 88.4422 14.82C88.2422 14.94 88.0022 15.0333 87.7222 15.1C87.4555 15.1667 87.2089 15.2133 86.9822 15.24C86.7555 15.2667 86.6022 15.28 86.5222 15.28ZM101.171 15.32C100.144 15.32 99.3175 15 98.6908 14.36C98.0641 13.7067 97.7508 12.8133 97.7508 11.68C97.7508 10.7333 97.8908 9.86667 98.1708 9.08C98.4641 8.29333 98.8641 7.60667 99.3708 7.02C99.8775 6.43333 100.464 5.98 101.131 5.66C101.811 5.34 102.537 5.18 103.311 5.18C104.177 5.18 104.884 5.38 105.431 5.78C105.991 6.16667 106.271 6.72667 106.271 7.46C106.271 8.18 106.011 8.81333 105.491 9.36C104.971 9.90667 104.237 10.38 103.291 10.78C102.344 11.1667 101.237 11.4933 99.9708 11.76L99.7108 10.42C100.377 10.34 100.991 10.1933 101.551 9.98C102.124 9.75333 102.584 9.46 102.931 9.1C103.291 8.72667 103.484 8.29333 103.511 7.8C103.524 7.46667 103.464 7.2 103.331 7C103.211 6.78667 103.011 6.68 102.731 6.68C102.357 6.68 102.004 6.88 101.671 7.28C101.351 7.66667 101.091 8.18 100.891 8.82C100.691 9.46 100.591 10.1467 100.591 10.88C100.591 11.6533 100.691 12.2333 100.891 12.62C101.104 12.9933 101.491 13.18 102.051 13.18C102.624 13.18 103.157 13.08 103.651 12.88C104.144 12.6667 104.557 12.4533 104.891 12.24C104.997 12.1733 105.097 12.1133 105.191 12.06C105.297 12.0067 105.384 11.98 105.451 11.98C105.531 11.98 105.597 12.0133 105.651 12.08C105.704 12.1467 105.731 12.2267 105.731 12.32C105.731 12.56 105.624 12.8467 105.411 13.18C105.211 13.5133 104.911 13.8467 104.511 14.18C104.124 14.5 103.651 14.7733 103.091 15C102.531 15.2133 101.891 15.32 101.171 15.32ZM110.732 15.32C109.652 15.32 108.806 15.16 108.192 14.84C107.579 14.52 107.272 14.0533 107.272 13.44C107.272 13.0667 107.326 12.7667 107.432 12.54C107.539 12.3 107.666 12.18 107.812 12.18C107.919 12.18 108.019 12.2067 108.112 12.26C108.219 12.3133 108.372 12.4133 108.572 12.56C108.812 12.7333 109.092 12.9067 109.412 13.08C109.746 13.2533 110.079 13.4 110.412 13.52C110.759 13.6267 111.066 13.68 111.332 13.68C111.666 13.68 111.932 13.6067 112.132 13.46C112.332 13.3 112.432 13.0733 112.432 12.78C112.432 12.5667 112.366 12.3867 112.232 12.24C112.112 12.08 111.892 11.9 111.572 11.7L110.152 10.84C109.592 10.4933 109.146 10.1133 108.812 9.7C108.479 9.28667 108.312 8.78 108.312 8.18C108.312 7.28667 108.646 6.56667 109.312 6.02C109.979 5.47333 110.979 5.2 112.312 5.2C113.166 5.2 113.812 5.28667 114.252 5.46C114.706 5.62 114.932 5.91333 114.932 6.34C114.932 6.72667 114.866 7.06667 114.732 7.36C114.612 7.65333 114.446 7.8 114.232 7.8C114.166 7.8 114.086 7.78 113.992 7.74C113.899 7.7 113.812 7.66 113.732 7.62C113.599 7.55333 113.412 7.45333 113.172 7.32C112.932 7.18667 112.679 7.06667 112.412 6.96C112.146 6.84 111.886 6.78 111.632 6.78C111.352 6.78 111.139 6.86 110.992 7.02C110.846 7.16667 110.772 7.34667 110.772 7.56C110.772 7.77333 110.832 7.96 110.952 8.12C111.086 8.28 111.339 8.44 111.712 8.6L113.052 9.16C113.719 9.44 114.219 9.78667 114.552 10.2C114.899 10.6133 115.072 11.14 115.072 11.78C115.072 12.5533 114.872 13.2067 114.472 13.74C114.072 14.26 113.539 14.6533 112.872 14.92C112.219 15.1867 111.506 15.32 110.732 15.32Z" fill="#0D1B2A"></path></svg>